<?xml version="1.0" encoding="UTF-8"?>
<svg width="208px" height="165px" viewBox="0 0 208 165" version="1.1" xmlns="http://www.w3.org/2000/svg" xmlns:xlink="http://www.w3.org/1999/xlink">
    <title>atom / symbol</title>
    <g id="✅-ToCode" stroke="none" stroke-width="1" fill="none" fill-rule="evenodd">
        <g id="1-Hlavička" transform="translate(-856, -313)">
            <g id="atom-/-symbol" transform="translate(856, 313)">
                <path d="M89.1160665,24.4819327 C81.5178843,16.8128479 72.6498586,10.7890338 62.7549488,6.57539676 C52.5050903,2.2120173 41.6136665,0 30.384377,0 L30.384377,13.4123688 C39.7914694,13.4123688 48.9100473,15.2623507 57.4876604,18.9111368 C64.112106,21.7353919 70.1879944,25.5301294 75.6128269,30.2214257 C70.913077,36.6205435 65.0687595,41.6776662 58.1861693,45.2923337 C50.0546148,49.5647304 40.7006698,51.7312564 30.384377,51.7312564 L30.384377,65.1436252 C42.9024913,65.1436252 54.3595554,62.4577396 64.4404811,57.1617873 C72.4581482,52.9500457 79.3426366,47.22003 84.9876513,40.0684094 C93.0717527,50.4025296 97.9935829,62.7155239 99.2501396,75.792394 L30.384377,75.792394 L30.384377,89.2047628 L99.2501396,89.2047628 C97.9935829,102.285424 93.0717527,114.598418 84.9876513,124.932538 C79.3426366,117.780918 72.4581482,112.049007 64.4404811,107.83537 C54.3595554,102.543208 42.9024913,99.8554271 30.384377,99.8554271 L30.384377,113.267796 C40.7006698,113.267796 50.0546148,115.436217 58.1861693,119.706719 C65.0687595,123.321386 70.9111788,128.380404 75.6128269,134.777627 C70.1879944,139.468923 64.112106,143.267451 57.4876604,146.08602 C48.9100473,149.736702 39.7914694,151.588579 30.384377,151.588579 L30.384377,164.999052 C41.6136665,164.999052 52.5050903,162.787035 62.7549488,158.425551 C72.6479604,154.210018 81.5178843,148.186204 89.1160665,140.51712 C96.6079539,132.956077 102.486438,124.170558 106.592075,114.40508 C110.843869,104.290835 113.000135,93.554874 113.000135,82.5004739 C113.000135,71.4422828 110.843869,60.7101132 106.592075,50.5939724 C102.486438,40.8284941 96.6079539,32.0429755 89.1160665,24.4819327" id="Fill-40" fill="#D81F41"></path>
                <path d="M125.384242,89.2057105 L125.384242,75.7933417 L194.246208,75.7933417 C192.99155,62.7126807 188.067821,50.3996864 179.987516,40.0674616 C174.338705,47.2190822 167.458013,52.9509934 159.438448,57.162735 C149.35942,62.4586873 137.900458,65.1426774 125.384242,65.1426774 L125.384242,51.7303086 C135.700535,51.7303086 145.05448,49.5656781 153.186034,45.2932814 C160.068624,41.6767184 165.911044,36.6195957 170.610794,30.2223735 C165.185961,25.5291817 159.110073,21.7344442 152.483729,18.9120845 C143.909912,15.2632985 134.791334,13.4133166 125.384242,13.4133166 L125.384242,0.000947736633 C136.613531,0.000947736633 147.501159,2.21106956 157.751018,6.57634449 C167.645927,10.7880861 176.517749,16.8119001 184.115931,24.4828804 C191.605921,32.0439233 197.486302,40.8294419 201.59194,50.5930247 C205.843733,60.7110609 208,71.4432306 208,82.5014216 C208,93.5558217 205.843733,104.291782 201.59194,114.406028 C197.486302,124.171506 191.605921,132.957024 184.115931,140.516172 C176.517749,148.187152 167.645927,154.210966 157.751018,158.424603 C147.501159,162.787983 136.613531,165 125.384242,165 L125.384242,151.589527 C134.791334,151.589527 143.909912,149.735754 152.483729,146.086968 C159.110073,143.266504 165.185961,139.469871 170.610794,134.776679 C165.911044,128.379457 160.068624,123.322334 153.186034,119.705771 C145.05448,115.433374 135.700535,113.268744 125.384242,113.268744 L125.384242,99.8563748 C137.900458,99.8563748 149.35942,102.54226 159.438448,107.836317 C167.458013,112.048059 174.338705,117.781865 179.987516,124.931591 C188.067821,114.599366 192.99155,102.286372 194.246208,89.2057105 L125.384242,89.2057105 Z" id="Fill-42" fill="#D81F41"></path>
                <polygon id="Fill-44" fill="#0065A3" points="0 164.999052 13.9986494 164.999052 13.9986494 0 0 0"></polygon>
            </g>
        </g>
    </g>
</svg>