<svg width="186" height="56" viewBox="0 0 186 56" xmlns="http://www.w3.org/2000/svg"><g fill="none" fill-rule="evenodd"><path d="M29.851 8.31a27.562 27.562 0 00-8.83-6.078A27.208 27.208 0 0010.18 0v4.552c3.15 0 6.205.628 9.078 1.866a23.042 23.042 0 016.071 3.84c-1.574 2.171-3.532 3.887-5.837 5.114-2.724 1.45-5.857 2.185-9.312 2.185v4.552c4.193 0 8.03-.91 11.407-2.709a21.424 21.424 0 006.882-5.8 23.378 23.378 0 014.777 12.124H10.18v4.552h23.066A23.38 23.38 0 0128.468 42.4a21.42 21.42 0 00-6.882-5.802c-3.377-1.797-7.214-2.709-11.407-2.709v4.552c3.455 0 6.588.736 9.312 2.185 2.305 1.228 4.262 2.944 5.837 5.116a23.008 23.008 0 01-6.071 3.838 22.792 22.792 0 01-9.078 1.867V56c3.76 0 7.409-.75 10.842-2.231a27.593 27.593 0 008.83-6.078 27.94 27.94 0 005.854-8.863A28.116 28.116 0 0037.852 28c0-3.753-.723-7.395-2.147-10.829a27.94 27.94 0 00-5.854-8.862M42 30.276v-4.552h23.066a23.395 23.395 0 00-4.777-12.126 21.433 21.433 0 01-6.882 5.803C50.03 21.198 46.192 22.11 42 22.11v-4.553c3.455 0 6.588-.735 9.312-2.185 2.305-1.227 4.262-2.944 5.837-5.115a23.046 23.046 0 00-6.072-3.838A22.797 22.797 0 0042 4.552V0A27.2 27.2 0 0152.84 2.232a27.56 27.56 0 018.831 6.077 27.94 27.94 0 015.854 8.863A28.119 28.119 0 0169.673 28c0 3.752-.723 7.396-2.147 10.828a27.94 27.94 0 01-5.854 8.863 27.584 27.584 0 01-8.831 6.078A27.22 27.22 0 0142 55.999v-4.55c3.15 0 6.205-.63 9.077-1.868a23.011 23.011 0 006.072-3.838c-1.575-2.171-3.532-3.888-5.837-5.116-2.724-1.45-5.857-2.185-9.312-2.185V33.89c4.192 0 8.03.912 11.407 2.71a21.439 21.439 0 016.882 5.8 23.393 23.393 0 004.777-12.124H42z" fill="#D81F41"/><path fill="#0065A3" d="M81.288.331v21.596h4.683v3.949h-8.517V.33zM95.811.331V4.04h-4.886v6.695h3.834v3.88h-3.834v7.382h5.09v3.88H87.09V.33zM106.907.331V4.04h-3.224v21.837h-3.8V4.039h-3.224V.33zM81.288 44.03v8.034h1.153c1.222 0 1.494-.583 1.494-1.717v-4.669c0-1.064-.272-1.648-1.494-1.648h-1.153zm0-10.438v6.626h1.153c1.053 0 1.324-.72 1.324-1.784v-3.228c0-1.064-.271-1.614-1.324-1.614h-1.153zm-3.834-3.468h6.04c3.155 0 4.037 1.683 4.037 4.155v3.914c0 2.163-.915 3.16-1.899 3.536.984.378 2.205 1.168 2.205 3.743V51c0 2.712-1.188 4.669-4.072 4.669h-6.311V30.124zM92.655 47.051h2.002l-1.018-9.441-.984 9.441zm2.409 3.812h-2.816l-.475 4.806h-3.427l3.087-25.544h4.547l3.292 25.544h-3.698l-.51-4.806zM105.447 29.884c3.156 0 4.378 1.407 4.378 4.43v4.188h-3.7v-3.674c0-.858-.17-1.51-1.086-1.51-.915 0-1.119.584-1.119 1.785v.48c0 1.442.271 2.233 1.561 3.915l2.443 3.193c1.73 2.266 2.273 3.536 2.273 6.455v.824c0 3.742-1.56 5.974-4.953 5.974h-.747c-3.088 0-4.683-1.682-4.683-4.841v-5.116h3.8v4.463c0 1.202.408 1.785 1.256 1.785.916 0 1.255-.583 1.255-2.197v-.584c0-1.853-.17-2.437-1.56-4.292l-2.443-3.158c-1.63-2.128-2.105-3.777-2.105-6.317v-.824c0-3.434 1.697-4.979 4.718-4.979h.712zM115.253 55.669h-3.834V30.125h3.834v10.231l3.02-10.231h3.733l-3.564 11.879 3.937 13.665h-3.937l-3.189-11.09zM131.744 30.125v3.708h-4.886v6.694h3.834v3.881h-3.834v7.381h5.09v3.88h-8.924V30.125zM142.84 30.125v3.708h-3.224v21.836h-3.8V33.833h-3.224v-3.708zM147.76 44.03v8.034h1.153c1.221 0 1.494-.583 1.494-1.717v-4.669c0-1.064-.273-1.648-1.494-1.648h-1.153zm0-10.438v6.626h1.153c1.053 0 1.324-.72 1.324-1.784v-3.228c0-1.064-.271-1.614-1.324-1.614h-1.153zm-3.835-3.468h6.04c3.155 0 4.038 1.683 4.038 4.155v3.914c0 2.163-.916 3.16-1.9 3.536.984.378 2.205 1.168 2.205 3.743V51c0 2.712-1.188 4.669-4.071 4.669h-6.312V30.124zM159.126 47.051h2.002l-1.017-9.441-.985 9.441zm2.41 3.812h-2.817l-.475 4.806h-3.427l3.088-25.544h4.547l3.291 25.544h-3.698l-.51-4.806zM170.324 30.125V51.72h4.682v3.948h-8.516V30.125zM175.72 30.125h3.902v20.222c0 1.1.372 1.82 1.22 1.82.918 0 1.256-.687 1.256-1.82V30.125H186v19.982c0 3.605-1.425 5.87-4.817 5.87h-.68c-3.393 0-4.784-2.162-4.784-5.87V30.125zM0 56h4.689V0H0z"/></g></svg>