<svg width="208" height="165" viewBox="0 0 208 165" xmlns="http://www.w3.org/2000/svg"><g fill="none" fill-rule="evenodd"><path d="M89.116 24.482c-7.598-7.67-16.466-13.693-26.361-17.907C52.505 2.212 41.614 0 30.385 0v13.412c9.406 0 18.525 1.85 27.103 5.5a68.981 68.981 0 0118.125 11.31c-4.7 6.399-10.544 11.456-17.427 15.07-8.131 4.273-17.485 6.44-27.802 6.44v13.412c12.518 0 23.976-2.686 34.056-7.982 8.018-4.212 14.903-9.942 20.548-17.094A68.411 68.411 0 0199.25 75.792H30.384v13.413H99.25a68.41 68.41 0 01-14.262 35.728c-5.645-7.152-12.53-12.884-20.548-17.098-10.08-5.292-21.538-7.98-34.056-7.98v13.413c10.317 0 19.67 2.168 27.802 6.439 6.883 3.614 12.725 8.673 17.427 15.07a68.827 68.827 0 01-18.125 11.309c-8.578 3.65-17.697 5.503-27.104 5.503v13.41c11.23 0 22.121-2.212 32.37-6.573a82.427 82.427 0 0026.362-17.909c7.492-7.56 13.37-16.346 17.476-26.112C110.844 104.291 113 93.555 113 82.5c0-11.058-2.156-21.79-6.408-31.906-4.106-9.766-9.984-18.551-17.476-26.112M125.384 89.206V75.793h68.862a68.41 68.41 0 00-14.258-35.726c-5.65 7.152-12.53 12.884-20.55 17.096-10.079 5.296-21.538 7.98-34.054 7.98V51.73c10.317 0 19.67-2.164 27.802-6.437 6.883-3.616 12.725-8.673 17.425-15.07a68.862 68.862 0 00-18.127-11.31c-8.574-3.65-17.693-5.5-27.1-5.5V.001c11.23 0 22.117 2.21 32.367 6.575a82.325 82.325 0 0126.365 17.907c7.49 7.56 13.37 16.346 17.476 26.11C205.844 60.711 208 71.443 208 82.501c0 11.055-2.156 21.79-6.408 31.905-4.106 9.766-9.986 18.551-17.476 26.11a82.361 82.361 0 01-26.365 17.909c-10.25 4.363-21.137 6.575-32.367 6.575v-13.41c9.407 0 18.526-1.854 27.1-5.503a68.813 68.813 0 0018.127-11.31c-4.7-6.398-10.542-11.455-17.425-15.071-8.132-4.273-17.485-6.437-27.802-6.437V99.856c12.516 0 23.975 2.686 34.054 7.98 8.02 4.212 14.9 9.946 20.55 17.096a68.41 68.41 0 0014.258-35.726h-68.862z" fill="#D81F41"/><path fill="#0065A3" d="M0 165h13.999V0H0z"/></g></svg>